<mxfile host="app.diagrams.net" modified="2023-12-08T09:11:52.029Z" agent="Mozilla/5.0 (Windows NT 10.0; Win64; x64) AppleWebKit/537.36 (KHTML, like Gecko) Chrome/120.0.0.0 Safari/537.36" etag="ntkRk_KuA8GRwMRYv-Me" version="22.1.7" type="device">
  <diagram name="Trang-1" id="51DsJdCcKfNkr7SuUWBr">
    <mxGraphModel dx="1450" dy="934" grid="0" gridSize="10" guides="1" tooltips="1" connect="1" arrows="1" fold="1" page="0" pageScale="1" pageWidth="827" pageHeight="1169" background="none" math="0" shadow="0">
      <root>
        <mxCell id="0" />
        <mxCell id="1" parent="0" />
        <mxCell id="Hr9OuCCos-FP0V0GV-um-11" style="edgeStyle=orthogonalEdgeStyle;rounded=0;orthogonalLoop=1;jettySize=auto;html=1;exitX=0.75;exitY=0;exitDx=0;exitDy=0;entryX=0;entryY=0.5;entryDx=0;entryDy=0;" edge="1" parent="1" source="Hr9OuCCos-FP0V0GV-um-1" target="Hr9OuCCos-FP0V0GV-um-5">
          <mxGeometry relative="1" as="geometry" />
        </mxCell>
        <mxCell id="Hr9OuCCos-FP0V0GV-um-12" style="edgeStyle=orthogonalEdgeStyle;rounded=0;orthogonalLoop=1;jettySize=auto;html=1;exitX=1;exitY=0;exitDx=0;exitDy=0;entryX=0;entryY=0.25;entryDx=0;entryDy=0;" edge="1" parent="1" source="Hr9OuCCos-FP0V0GV-um-1" target="Hr9OuCCos-FP0V0GV-um-3">
          <mxGeometry relative="1" as="geometry">
            <Array as="points">
              <mxPoint x="78" y="12" />
            </Array>
          </mxGeometry>
        </mxCell>
        <mxCell id="Hr9OuCCos-FP0V0GV-um-13" style="edgeStyle=orthogonalEdgeStyle;rounded=0;orthogonalLoop=1;jettySize=auto;html=1;exitX=1;exitY=1;exitDx=0;exitDy=0;entryX=0;entryY=0.5;entryDx=0;entryDy=0;" edge="1" parent="1" source="Hr9OuCCos-FP0V0GV-um-1" target="Hr9OuCCos-FP0V0GV-um-4">
          <mxGeometry relative="1" as="geometry" />
        </mxCell>
        <mxCell id="Hr9OuCCos-FP0V0GV-um-14" style="edgeStyle=orthogonalEdgeStyle;rounded=0;orthogonalLoop=1;jettySize=auto;html=1;exitX=0.75;exitY=1;exitDx=0;exitDy=0;entryX=0;entryY=0.5;entryDx=0;entryDy=0;" edge="1" parent="1" source="Hr9OuCCos-FP0V0GV-um-1" target="Hr9OuCCos-FP0V0GV-um-6">
          <mxGeometry relative="1" as="geometry" />
        </mxCell>
        <mxCell id="Hr9OuCCos-FP0V0GV-um-15" style="edgeStyle=orthogonalEdgeStyle;rounded=0;orthogonalLoop=1;jettySize=auto;html=1;exitX=0.5;exitY=1;exitDx=0;exitDy=0;entryX=0;entryY=0.5;entryDx=0;entryDy=0;" edge="1" parent="1" source="Hr9OuCCos-FP0V0GV-um-1" target="Hr9OuCCos-FP0V0GV-um-7">
          <mxGeometry relative="1" as="geometry" />
        </mxCell>
        <mxCell id="Hr9OuCCos-FP0V0GV-um-16" style="edgeStyle=orthogonalEdgeStyle;rounded=0;orthogonalLoop=1;jettySize=auto;html=1;exitX=0.25;exitY=1;exitDx=0;exitDy=0;entryX=0;entryY=0.5;entryDx=0;entryDy=0;" edge="1" parent="1" source="Hr9OuCCos-FP0V0GV-um-1" target="Hr9OuCCos-FP0V0GV-um-8">
          <mxGeometry relative="1" as="geometry" />
        </mxCell>
        <mxCell id="Hr9OuCCos-FP0V0GV-um-17" style="edgeStyle=orthogonalEdgeStyle;rounded=0;orthogonalLoop=1;jettySize=auto;html=1;exitX=0;exitY=1;exitDx=0;exitDy=0;entryX=0;entryY=0.5;entryDx=0;entryDy=0;" edge="1" parent="1" source="Hr9OuCCos-FP0V0GV-um-1" target="Hr9OuCCos-FP0V0GV-um-9">
          <mxGeometry relative="1" as="geometry" />
        </mxCell>
        <mxCell id="Hr9OuCCos-FP0V0GV-um-18" style="edgeStyle=orthogonalEdgeStyle;rounded=0;orthogonalLoop=1;jettySize=auto;html=1;exitX=0;exitY=0;exitDx=0;exitDy=0;entryX=0;entryY=0.5;entryDx=0;entryDy=0;" edge="1" parent="1" source="Hr9OuCCos-FP0V0GV-um-1" target="Hr9OuCCos-FP0V0GV-um-2">
          <mxGeometry relative="1" as="geometry" />
        </mxCell>
        <mxCell id="Hr9OuCCos-FP0V0GV-um-1" value="Quản lý sinh viên" style="rounded=0;whiteSpace=wrap;html=1;fillColor=#d80073;strokeColor=#A50040;fontColor=#ffffff;" vertex="1" parent="1">
          <mxGeometry x="-106" y="12" width="109" height="57" as="geometry" />
        </mxCell>
        <mxCell id="Hr9OuCCos-FP0V0GV-um-2" value="Hien thi danh sach thi sinh" style="rounded=0;whiteSpace=wrap;html=1;fillColor=#0050ef;fontColor=#ffffff;strokeColor=#001DBC;" vertex="1" parent="1">
          <mxGeometry x="76" y="-161" width="120" height="60" as="geometry" />
        </mxCell>
        <mxCell id="Hr9OuCCos-FP0V0GV-um-3" value="Them sinh vien" style="rounded=0;whiteSpace=wrap;html=1;fillColor=#0050ef;fontColor=#ffffff;strokeColor=#001DBC;" vertex="1" parent="1">
          <mxGeometry x="78" y="-7" width="120" height="60" as="geometry" />
        </mxCell>
        <mxCell id="Hr9OuCCos-FP0V0GV-um-4" value="Cap nhat thong tin sinh vien" style="rounded=0;whiteSpace=wrap;html=1;fillColor=#0050ef;fontColor=#ffffff;strokeColor=#001DBC;" vertex="1" parent="1">
          <mxGeometry x="76" y="69" width="120" height="60" as="geometry" />
        </mxCell>
        <mxCell id="Hr9OuCCos-FP0V0GV-um-5" value="Xoa sinh vien khoi danh sach" style="rounded=0;whiteSpace=wrap;html=1;fillColor=#0050ef;fontColor=#ffffff;strokeColor=#001DBC;" vertex="1" parent="1">
          <mxGeometry x="76" y="-82" width="120" height="60" as="geometry" />
        </mxCell>
        <mxCell id="Hr9OuCCos-FP0V0GV-um-6" value="Sap xep sinh vien theo ho va ten" style="rounded=0;whiteSpace=wrap;html=1;fillColor=#0050ef;fontColor=#ffffff;strokeColor=#001DBC;" vertex="1" parent="1">
          <mxGeometry x="78" y="145" width="120" height="60" as="geometry" />
        </mxCell>
        <mxCell id="Hr9OuCCos-FP0V0GV-um-7" value="Hien thi danh sach sinh vien theo lop" style="rounded=0;whiteSpace=wrap;html=1;fillColor=#0050ef;fontColor=#ffffff;strokeColor=#001DBC;" vertex="1" parent="1">
          <mxGeometry x="78" y="214" width="120" height="60" as="geometry" />
        </mxCell>
        <mxCell id="Hr9OuCCos-FP0V0GV-um-8" value="Tim kiem sinh vien theo ma sinh vien" style="rounded=0;whiteSpace=wrap;html=1;fillColor=#0050ef;fontColor=#ffffff;strokeColor=#001DBC;" vertex="1" parent="1">
          <mxGeometry x="78" y="283" width="120" height="60" as="geometry" />
        </mxCell>
        <mxCell id="Hr9OuCCos-FP0V0GV-um-9" value="Tim kiem sinh vien theo ten" style="rounded=0;whiteSpace=wrap;html=1;fillColor=#0050ef;fontColor=#ffffff;strokeColor=#001DBC;" vertex="1" parent="1">
          <mxGeometry x="78" y="352" width="120" height="60" as="geometry" />
        </mxCell>
        <mxCell id="Hr9OuCCos-FP0V0GV-um-19" value="" style="rounded=0;whiteSpace=wrap;html=1;fillColor=#008a00;fontColor=#ffffff;strokeColor=#005700;" vertex="1" parent="1">
          <mxGeometry x="336" y="10.5" width="120" height="60" as="geometry" />
        </mxCell>
      </root>
    </mxGraphModel>
  </diagram>
</mxfile>
